<?xml version="1.0" encoding="UTF-8" standalone="no"?>
<!-- Generator: Adobe Illustrator 13.0.0, SVG Export Plug-In . SVG Version: 6.00 Build 14948)  -->

<svg
   version="1.2"
   id="Layer_3"
   x="0px"
   y="0px"
   width="481.35498"
   height="347.78455"
   viewBox="0 0 481.35496 347.78454"
   xml:space="preserve"
   sodipodi:docname="controller.svg"
   inkscape:version="1.1.1 (3bf5ae0d25, 2021-09-20)"
   xmlns:inkscape="http://www.inkscape.org/namespaces/inkscape"
   xmlns:sodipodi="http://sodipodi.sourceforge.net/DTD/sodipodi-0.dtd"
   xmlns="http://www.w3.org/2000/svg"
   xmlns:svg="http://www.w3.org/2000/svg"
   xmlns:rdf="http://www.w3.org/1999/02/22-rdf-syntax-ns#"
   xmlns:cc="http://creativecommons.org/ns#"
   xmlns:dc="http://purl.org/dc/elements/1.1/"
   xmlns:ns="&amp;#38;#38;ns_sfw;"><defs
   id="defs29" /><sodipodi:namedview
   id="namedview27"
   pagecolor="#ffffff"
   bordercolor="#666666"
   borderopacity="1.0"
   inkscape:pageshadow="2"
   inkscape:pageopacity="0.0"
   inkscape:pagecheckerboard="0"
   showgrid="false"
   inkscape:zoom="1.4142136"
   inkscape:cx="204.70741"
   inkscape:cy="177.83735"
   inkscape:window-width="1920"
   inkscape:window-height="1009"
   inkscape:window-x="-8"
   inkscape:window-y="-8"
   inkscape:window-maximized="1"
   inkscape:current-layer="Layer_3" />
<metadata
   id="metadata55">
	<rdf:RDF>
		<cc:Work
   rdf:about="">
			<dc:format>image/svg+xml</dc:format>
			<dc:type
   rdf:resource="http://purl.org/dc/dcmitype/StillImage" />
			
		</cc:Work>
	</rdf:RDF>
	<ns:sfw>
		<ns:slices />
		<ns:sliceSourceBounds
   height="242.633"
   width="579.431"
   y="412.108"
   x="675.286"
   bottomLeftOrigin="true" />
	</ns:sfw>
</metadata>













<rect
   style="fill:none;fill-opacity:1;stroke:#f2f2f2;stroke-width:1.5;stroke-linecap:round;stroke-linejoin:round;stroke-miterlimit:4;stroke-dasharray:none;paint-order:stroke fill markers"
   id="rect94588"
   width="314.54199"
   height="123.53847"
   x="83.406303"
   y="163.35524"
   rx="9.0646315"
   ry="9.0646315" /><path
   d="m 111.11996,74.455683 -5.56367,-15.565545 h 3.40828 l 3.93916,11.520202 3.81176,-11.520202 h 3.33396 l -5.5743,15.565545 z"
   style="font-weight:bold;font-size:32.8045px;line-height:1.25;font-family:Arial;-inkscape-font-specification:'Arial Bold';fill:#cccccc;stroke-width:0.959342"
   id="path961" /><path
   d="M 121.55716,74.455683 V 58.890138 H 124.7 v 15.565545 z"
   style="font-weight:bold;font-size:32.8045px;line-height:1.25;font-family:Arial;-inkscape-font-specification:'Arial Bold';fill:#cccccc;stroke-width:0.959342"
   id="path963" /><path
   d="m 127.68357,58.890138 h 5.74418 q 1.94303,0 2.96233,0.297295 1.36969,0.403473 2.34651,1.43339 0.97683,1.029916 1.48648,2.527012 0.50965,1.486477 0.50965,3.673723 0,1.921804 -0.47779,3.312722 -0.58398,1.698832 -1.66698,2.749984 -0.81757,0.796327 -2.20848,1.242271 -1.04054,0.329148 -2.78184,0.329148 h -5.91406 z m 3.14284,2.633189 v 10.309785 h 2.34651 q 1.3166,0 1.90057,-0.148648 0.76447,-0.191118 1.26351,-0.64768 0.50964,-0.456561 0.82818,-1.497095 0.31853,-1.051152 0.31853,-2.856161 0,-1.805009 -0.31853,-2.771219 -0.31854,-0.96621 -0.89189,-1.507713 -0.57336,-0.541503 -1.45463,-0.732621 -0.65829,-0.148648 -2.5801,-0.148648 z"
   style="font-weight:bold;font-size:32.8045px;line-height:1.25;font-family:Arial;-inkscape-font-specification:'Arial Bold';fill:#cccccc;stroke-width:0.959342"
   id="path965" /><path
   d="M 143.39776,74.455683 V 58.890138 h 11.54144 v 2.633189 h -8.3986 v 3.450752 h 7.81462 v 2.622571 h -7.81462 v 4.236462 h 8.69589 v 2.622571 z"
   style="font-weight:bold;font-size:32.8045px;line-height:1.25;font-family:Arial;-inkscape-font-specification:'Arial Bold';fill:#cccccc;stroke-width:0.959342"
   id="path967" /><path
   d="m 157.26448,66.76847 q 0,-2.378365 0.71138,-3.992255 0.53089,-1.189182 1.44401,-2.134157 0.92374,-0.944975 2.01736,-1.401536 1.45463,-0.615827 3.3552,-0.615827 3.44013,0 5.49996,2.134158 2.07045,2.134157 2.07045,5.935293 0,3.769283 -2.04921,5.90344 -2.04922,2.12354 -5.47873,2.12354 -3.47199,0 -5.52121,-2.112922 -2.04921,-2.12354 -2.04921,-5.839734 z m 3.2384,-0.106177 q 0,2.643806 1.22103,4.013489 1.22103,1.359066 3.10037,1.359066 1.87933,0 3.07913,-1.348448 1.21042,-1.359065 1.21042,-4.066578 0,-2.67566 -1.17857,-3.992254 -1.16794,-1.316595 -3.11098,-1.316595 -1.94304,0 -3.13222,1.33783 -1.18918,1.327212 -1.18918,4.01349 z"
   style="font-weight:bold;font-size:32.8045px;line-height:1.25;font-family:Arial;-inkscape-font-specification:'Arial Bold';fill:#cccccc;stroke-width:0.959342"
   id="path969" /><path
   d="M 235.31517,74.455683 V 59.01755 h 3.14285 v 12.815562 h 7.81462 v 2.622571 z"
   style="font-weight:bold;font-size:32.8045px;line-height:1.25;font-family:Arial;-inkscape-font-specification:'Arial Bold';fill:#cccccc;stroke-width:0.959342"
   id="path971" /><path
   d="m 273.43271,74.455683 h -3.4189 l -1.35906,-3.535693 h -6.22197 l -1.28474,3.535693 h -3.33395 l 6.0627,-15.565545 h 3.32334 z m -5.78664,-6.158265 -2.14477,-5.776027 -2.10231,5.776027 z"
   style="font-weight:bold;font-size:32.8045px;line-height:1.25;font-family:Arial;-inkscape-font-specification:'Arial Bold';fill:#cccccc;stroke-width:0.959342"
   id="path973" /><path
   d="m 275.07846,58.890138 h 3.14283 v 8.430452 q 0,2.006745 0.1168,2.601336 0.20174,0.955593 0.95559,1.539566 0.76448,0.573356 2.08107,0.573356 1.33783,0 2.01736,-0.541502 0.67953,-0.552121 0.81757,-1.348448 0.13803,-0.796327 0.13803,-2.643807 v -8.610953 h 3.14283 v 8.175628 q 0,2.803072 -0.25482,3.960401 -0.25482,1.157329 -0.94498,1.953656 -0.67953,0.796328 -1.82624,1.274124 -1.14671,0.467179 -2.99419,0.467179 -2.22971,0 -3.38705,-0.50965 -1.14671,-0.520267 -1.81563,-1.33783 -0.66891,-0.82818 -0.88126,-1.730684 -0.30791,-1.337831 -0.30791,-3.949784 z"
   style="font-weight:bold;font-size:32.8045px;line-height:1.25;font-family:Arial;-inkscape-font-specification:'Arial Bold';fill:#cccccc;stroke-width:0.959342"
   id="path975" /><path
   d="m 290.79264,58.890138 h 5.74418 q 1.94304,0 2.96233,0.297295 1.36969,0.403473 2.34652,1.43339 0.97682,1.029916 1.48648,2.527012 0.50964,1.486477 0.50964,3.673723 0,1.921804 -0.47779,3.312722 -0.58398,1.698832 -1.66698,2.749984 -0.81756,0.796327 -2.20848,1.242271 -1.04054,0.329148 -2.78184,0.329148 h -5.91406 z m 3.14285,2.633189 v 10.309785 h 2.3465 q 1.3166,0 1.90057,-0.148648 0.76448,-0.191118 1.26351,-0.64768 0.50965,-0.456561 0.82818,-1.497095 0.31853,-1.051152 0.31853,-2.856161 0,-1.805009 -0.31853,-2.771219 -0.31853,-0.96621 -0.89189,-1.507713 -0.57335,-0.541503 -1.45462,-0.732621 -0.6583,-0.148648 -2.5801,-0.148648 z"
   style="font-weight:bold;font-size:32.8045px;line-height:1.25;font-family:Arial;-inkscape-font-specification:'Arial Bold';fill:#cccccc;stroke-width:0.959342"
   id="path977" /><path
   d="M 306.41129,74.455683 V 58.890138 h 3.14283 v 15.565545 z"
   style="font-weight:bold;font-size:32.8045px;line-height:1.25;font-family:Arial;-inkscape-font-specification:'Arial Bold';fill:#cccccc;stroke-width:0.959342"
   id="path979" /><path
   d="m 311.91125,66.76847 q 0,-2.378365 0.71139,-3.992255 0.53088,-1.189182 1.444,-2.134157 0.92374,-0.944975 2.01737,-1.401536 1.45462,-0.615827 3.35519,-0.615827 3.44013,0 5.49996,2.134158 2.07046,2.134157 2.07046,5.935293 0,3.769283 -2.04922,5.90344 -2.04922,2.12354 -5.47873,2.12354 -3.47199,0 -5.52121,-2.112922 -2.04921,-2.12354 -2.04921,-5.839734 z m 3.2384,-0.106177 q 0,2.643806 1.22103,4.013489 1.22104,1.359066 3.10037,1.359066 1.87933,0 3.07913,-1.348448 1.21042,-1.359065 1.21042,-4.066578 0,-2.67566 -1.17857,-3.992254 -1.16795,-1.316595 -3.11098,-1.316595 -1.94304,0 -3.13223,1.33783 -1.18917,1.327212 -1.18917,4.01349 z"
   style="font-weight:bold;font-size:32.8045px;line-height:1.25;font-family:Arial;-inkscape-font-specification:'Arial Bold';fill:#cccccc;stroke-width:0.959342"
   id="path981" /><path
   d="M 341.55587,74.455683 V 58.890138 h 6.61483 q 2.49516,0 3.62063,0.424708 1.1361,0.41409 1.81563,1.486478 0.67953,1.072387 0.67953,2.452688 0,1.75192 -1.02992,2.898631 -1.02991,1.136094 -3.07913,1.43339 1.0193,0.594591 1.6776,1.305976 0.66891,0.711386 1.79439,2.527013 l 1.90057,3.036661 h -3.75867 l -2.27218,-3.387045 q -1.21043,-1.815627 -1.65636,-2.282806 -0.44595,-0.477796 -0.94498,-0.647679 -0.49903,-0.180501 -1.58204,-0.180501 h -0.63706 v 6.498031 z m 3.14284,-8.982573 h 2.32528 q 2.26156,0 2.8243,-0.191118 0.56274,-0.191118 0.88127,-0.658297 0.31853,-0.467179 0.31853,-1.167947 0,-0.78571 -0.4247,-1.263506 -0.41409,-0.488414 -1.17857,-0.615827 -0.38224,-0.05309 -2.29342,-0.05309 h -2.45269 z"
   style="font-weight:bold;font-size:32.8045px;line-height:1.25;font-family:Arial;-inkscape-font-specification:'Arial Bold';fill:#cccccc;stroke-width:0.959342"
   id="path983" /><path
   style="fill:none;stroke:#f2f2f2;stroke-width:1.5;stroke-linecap:butt;stroke-linejoin:miter;stroke-opacity:1;stroke-miterlimit:4;stroke-dasharray:none"
   d="m 134.67271,86.83992 v 64.80957 0 0"
   id="path4494" /><path
   style="fill:none;stroke:#f2f2f2;stroke-width:1.5;stroke-linecap:butt;stroke-linejoin:miter;stroke-opacity:1;stroke-miterlimit:4;stroke-dasharray:none"
   d="M 241.91663,152.19587 V 89.875412 h 106.22856 l 3e-5,62.572998"
   id="path4925" /><ellipse
   style="fill:none;stroke:#f2f2f2;stroke-width:1.5;stroke-linecap:round;stroke-linejoin:round;stroke-miterlimit:4;stroke-dasharray:none;paint-order:stroke fill markers"
   id="path5323"
   cx="134.30609"
   cy="225.12448"
   rx="29.970308"
   ry="29.885292" /><ellipse
   style="fill:#b3b3b3;stroke:#f2f2f2;stroke-width:1.5;stroke-linecap:round;stroke-linejoin:round;stroke-miterlimit:4;stroke-dasharray:none;paint-order:stroke fill markers"
   id="path5427"
   cx="134.30611"
   cy="225.16869"
   rx="9.7866888"
   ry="9.6541071" /><ellipse
   style="fill:none;stroke:#f2f2f2;stroke-width:1.5;stroke-linecap:round;stroke-linejoin:round;stroke-miterlimit:4;stroke-dasharray:none;paint-order:stroke fill markers"
   id="path5323-1"
   cx="241.12341"
   cy="225.12448"
   rx="29.970308"
   ry="29.885292" /><ellipse
   style="fill:#b3b3b3;stroke:#f2f2f2;stroke-width:1.5;stroke-linecap:round;stroke-linejoin:round;stroke-miterlimit:4;stroke-dasharray:none;paint-order:stroke fill markers"
   id="path5427-0"
   cx="241.12343"
   cy="225.16869"
   rx="9.7866888"
   ry="9.6541071" /><ellipse
   style="fill:none;stroke:#f2f2f2;stroke-width:1.5;stroke-linecap:round;stroke-linejoin:round;stroke-miterlimit:4;stroke-dasharray:none;paint-order:stroke fill markers"
   id="path5323-19"
   cx="347.89655"
   cy="225.12448"
   rx="29.970308"
   ry="29.885292" /><ellipse
   style="fill:#b3b3b3;stroke:#f2f2f2;stroke-width:1.5;stroke-linecap:round;stroke-linejoin:round;stroke-miterlimit:4;stroke-dasharray:none;paint-order:stroke fill markers"
   id="path5427-9"
   cx="347.89655"
   cy="225.16869"
   rx="9.7866888"
   ry="9.6541071" /></svg>
