<?xml version="1.0" encoding="UTF-8" standalone="no"?>
<!-- Generator: Adobe Illustrator 13.0.0, SVG Export Plug-In . SVG Version: 6.00 Build 14948)  -->

<svg
   version="1.1"
   id="Layer_1"
   x="0px"
   y="0px"
   width="270px"
   height="82.35px"
   viewBox="3 136.909 270 82.35"
   enable-background="new 3 136.909 270 82.35"
   xml:space="preserve"
   sodipodi:docname="system.svg"
   inkscape:version="1.1.1 (3bf5ae0d25, 2021-09-20)"
   xmlns:inkscape="http://www.inkscape.org/namespaces/inkscape"
   xmlns:sodipodi="http://sodipodi.sourceforge.net/DTD/sodipodi-0.dtd"
   xmlns="http://www.w3.org/2000/svg"
   xmlns:svg="http://www.w3.org/2000/svg"
   xmlns:rdf="http://www.w3.org/1999/02/22-rdf-syntax-ns#"
   xmlns:cc="http://creativecommons.org/ns#"
   xmlns:dc="http://purl.org/dc/elements/1.1/"><defs
   id="defs32"><rect
     x="914.87695"
     y="743.1424"
     width="390.30588"
     height="1178.7238"
     id="rect86194" /><rect
     x="-117.09176"
     y="-473.05072"
     width="660.39752"
     height="1280.2032"
     id="rect84376" /></defs><sodipodi:namedview
   id="namedview30"
   pagecolor="#ffffff"
   bordercolor="#666666"
   borderopacity="1.0"
   inkscape:pageshadow="2"
   inkscape:pageopacity="0.0"
   inkscape:pagecheckerboard="0"
   showgrid="false"
   inkscape:zoom="2.770811"
   inkscape:cx="188.57295"
   inkscape:cy="35.910064"
   inkscape:window-width="1920"
   inkscape:window-height="1009"
   inkscape:window-x="-8"
   inkscape:window-y="-8"
   inkscape:window-maximized="1"
   inkscape:current-layer="Layer_1" />
<title
   id="title2">3DO Logo</title>






<radialGradient
   id="SVGID_1_"
   cx="49.8867"
   cy="-77.3159"
   r="10.654"
   gradientTransform="matrix(1,0,0,-1,-6,113)"
   gradientUnits="userSpaceOnUse">
	<stop
   offset="0.5225"
   style="stop-color:#FFE41B"
   id="stop16" />
	<stop
   offset="0.8933"
   style="stop-color:#716A13"
   id="stop18" />
	<stop
   offset="1"
   style="stop-color:#49482E"
   id="stop20" />
</radialGradient>



<metadata
   id="metadata837"><rdf:RDF><cc:Work
       rdf:about=""><dc:title>3DO Logo</dc:title></cc:Work></rdf:RDF></metadata><g
   id="g1087"><g
     id="g1040"
     transform="matrix(0.8610853,0,0,0.8610853,25.274287,16.608241)"><path
       id="rect3188-1-8"
       style="fill:#4d4d4d;stroke:none;stroke-width:0.483075;stroke-linecap:round;stroke-linejoin:round;paint-order:stroke fill markers"
       d="m 73.408916,139.76508 c -1.42553,0 -2.6174,0.96393 -2.962745,2.27811 h -6.456858 c -2.378015,0 -4.301289,1.31332 -4.376351,2.96401 H 42.757366 c -2.381812,0 -4.299081,1.36665 -4.299081,3.06407 v 0.29451 H 13.199591 c -7.8963957,-0.0303 -17.3691194,7.87605 -17.444596,17.43447 v 19.0159 h -21.404847 v 5.83809 h 21.404847 v 18.7005 c 0.075483,9.55841 9.5482003,17.4641 17.444596,17.43383 h 25.258694 v 0.19886 c 0,1.69745 1.91664,3.06408 4.298449,3.06408 h 16.856228 c 0.07507,1.6507 1.998336,2.96402 4.376351,2.96402 h 6.456858 c 0.345345,1.31417 1.537215,2.27811 2.962745,2.27811 H 114.672 c 1.44946,0 2.65715,-0.99658 2.97921,-2.34461 2.04969,-0.28811 3.58278,-1.51549 3.58278,-2.99758 v -3.01089 h 11.33228 c 2.39322,0 4.31998,-1.36664 4.31998,-3.06407 v -0.29956 c 0,-1.69743 -1.92676,-3.06409 -4.31998,-3.06409 h -11.33228 v -3.0115 c 0,-1.4821 -1.5331,-2.70885 -3.58278,-2.99695 -0.32206,-1.34803 -1.52975,-2.34461 -2.97921,-2.34461 H 73.408916 c -1.42553,0 -2.6174,0.96392 -2.962745,2.27811 h -6.456858 c -2.378316,0 -4.30175,1.31304 -4.376351,2.96402 H 42.756734 c -2.381809,0 -4.298449,1.36664 -4.298449,3.06406 v 0.31097 H 14.022927 C 8.1499721,220.71726 2.2730126,215.06363 2.0554159,208.81704 v -18.1628 H 38.458285 v 0.38886 c 0,1.69743 1.917269,3.06408 4.299081,3.06408 h 16.855596 c 0.0746,1.65097 1.998035,2.96402 4.376351,2.96402 h 6.456858 c 0.345345,1.31418 1.537215,2.2781 2.962745,2.2781 H 114.672 c 1.44946,0 2.65715,-0.99659 2.97921,-2.3446 2.04968,-0.28811 3.58278,-1.51485 3.58278,-2.99695 v -3.01151 h 11.33228 c 2.39322,0 4.31998,-1.36665 4.31998,-3.06408 v -0.29957 c 0,-1.69742 -1.92676,-3.06408 -4.31998,-3.06408 h -11.33228 v -3.01088 c 0,-1.48209 -1.53309,-2.70945 -3.58278,-2.99757 -0.32206,-1.34803 -1.52975,-2.34461 -2.97921,-2.34461 H 73.408916 c -1.42553,0 -2.6174,0.96392 -2.962745,2.27811 h -6.456858 c -2.378015,0 -4.301289,1.31331 -4.376351,2.96401 H 42.757366 c -2.381812,0 -4.299081,1.36665 -4.299081,3.06408 v 0.2945 H 2.0554159 v -18.47821 c 0.2175967,-6.24659 6.0945562,-11.90081 11.9675111,-11.96053 h 24.435358 v 0.21533 c 0,1.69743 1.917269,3.06407 4.299081,3.06407 h 16.855596 c 0.0746,1.65097 1.998035,2.96402 4.376351,2.96402 h 6.456858 c 0.345166,1.31444 1.537026,2.27874 2.962745,2.27874 H 114.672 c 1.44939,0 2.65708,-0.99669 2.97921,-2.34461 2.04969,-0.28813 3.58278,-1.51549 3.58278,-2.99758 v -3.01151 h 11.33228 c 2.39322,0 4.31998,-1.36601 4.31998,-3.06344 v -0.30021 c 0,-1.69743 -1.92676,-3.06408 -4.31998,-3.06408 h -11.33228 v -3.01087 c 0,-1.4821 -1.53309,-2.70947 -3.58278,-2.99758 -0.32206,-1.34803 -1.52975,-2.34461 -2.97921,-2.34461 z" /><g
       id="g74116"
       transform="matrix(1.2255794,0,0,1.2255794,40.122058,1.2576142)"><path
         id="rect3188-2-3-67"
         style="fill:#ab9905;fill-opacity:1;stroke:none;stroke-width:0.906372;stroke-linecap:round;stroke-linejoin:round;paint-order:stroke fill markers"
         d="m 453.00977,142.5625 v 11.0332 h 33.78125 c 5.23464,0 9.44921,-2.45936 9.44921,-5.51562 0,-3.05627 -4.21457,-5.51758 -9.44921,-5.51758 z"
         transform="matrix(0.26458333,0,0,0.26458333,-53.665975,113.01387)" /><path
         id="rect3188-2-3-60"
         style="fill:#ab9905;fill-opacity:1;stroke:none;stroke-width:1.89652;stroke-linecap:round;stroke-linejoin:round;paint-order:stroke fill markers"
         d="m 442.18359,124.36523 v 47.42774 c 3.40554,-0.85518 5.78711,-2.86776 5.78711,-5.22852 V 129.5957 c 0,-2.36075 -2.38157,-4.37529 -5.78711,-5.23047 z"
         transform="matrix(0.26458333,0,0,0.26458333,-53.665975,113.01387)" /></g><g
       id="g74112"
       transform="matrix(1.2255794,0,0,1.2255794,40.122058,1.2576142)"><path
         id="rect3188-2-3-6"
         style="fill:#ffffff;stroke:none;stroke-width:1.23089;stroke-linecap:round;stroke-linejoin:round;paint-order:stroke fill markers"
         d="m 211.21484,133.00586 c -5.23464,0 -9.44922,3.37283 -9.44922,7.56055 v 15.02734 c 10e-6,4.18772 4.21458,7.55859 9.44922,7.55859 h 51.7168 v -30.14648 z m -2.06054,6.21875 h 7.26953 v 17.71094 h -7.26953 z m 13.32031,0 h 7.26953 v 17.71094 h -7.26953 z m 13.31836,0 h 7.26953 v 17.71094 h -7.26953 z m 13.32031,0 h 7.26953 v 17.71094 h -7.26953 z"
         transform="matrix(0.26458333,0,0,0.26458333,-53.665975,113.01387)" /><path
         id="rect3188-2-3"
         style="fill:#ffffff;stroke:none;stroke-width:1.89652;stroke-linecap:round;stroke-linejoin:round;paint-order:stroke fill markers"
         d="m 277.37891,123.92578 c -5.23465,0 -9.44727,2.52914 -9.44727,5.66992 v 36.96875 c 0,3.14079 4.21262,5.66797 9.44727,5.66797 h 18.6582 v -48.30664 z"
         transform="matrix(0.26458333,0,0,0.26458333,-53.665975,113.01387)" /><rect
         style="fill:#ffffff;stroke:none;stroke-width:0.649212;stroke-linecap:round;stroke-linejoin:round;paint-order:stroke fill markers"
         id="rect3188-2"
         width="16.552593"
         height="36.449963"
         x="143.91695"
         y="-62.219349"
         rx="1.5"
         ry="1.5"
         transform="rotate(90)" /></g><g
       id="g74102"
       transform="matrix(1.2255794,0,0,1.2255794,40.122058,1.2576142)"><path
         id="rect3188-2-3-67-3"
         style="fill:#ab9905;fill-opacity:1;stroke:none;stroke-width:0.906372;stroke-linecap:round;stroke-linejoin:round;paint-order:stroke fill markers"
         d="M 453.00977,30.154297 V 41.1875 h 33.78125 c 5.23464,0 9.44921,-2.459362 9.44921,-5.515625 0,-3.056263 -4.21457,-5.517578 -9.44921,-5.517578 z"
         transform="matrix(0.26458333,0,0,0.26458333,-53.665975,113.01387)" /><path
         id="rect3188-2-3-60-7"
         style="fill:#ab9905;fill-opacity:1;stroke:none;stroke-width:1.89652;stroke-linecap:round;stroke-linejoin:round;paint-order:stroke fill markers"
         d="m 442.18359,11.957031 v 47.427735 c 3.40554,-0.855178 5.78711,-2.867761 5.78711,-5.228516 V 17.1875 c 0,-2.360757 -2.38157,-4.375292 -5.78711,-5.230469 z"
         transform="matrix(0.26458333,0,0,0.26458333,-53.665975,113.01387)" /></g><g
       id="g74098"
       transform="matrix(1.2255794,0,0,1.2255794,40.122058,1.2576142)"><path
         id="rect3188-2-3-6-1"
         style="fill:#ffff00;stroke:none;stroke-width:1.23089;stroke-linecap:round;stroke-linejoin:round;paint-order:stroke fill markers"
         d="m 211.21484,20.597656 c -5.23464,0 -9.44922,3.372831 -9.44922,7.560547 v 15.027344 c 0,4.187716 4.21458,7.558594 9.44922,7.558594 h 51.7168 V 20.597656 Z m -2.06054,6.21875 h 7.26953 v 17.710938 h -7.26953 z m 13.32031,0 h 7.26953 v 17.710938 h -7.26953 z m 13.31836,0 h 7.26953 v 17.710938 h -7.26953 z m 13.32031,0 h 7.26953 v 17.710938 h -7.26953 z"
         transform="matrix(0.26458333,0,0,0.26458333,-53.665975,113.01387)" /><path
         id="rect3188-2-3-0"
         style="fill:#ffff00;stroke:none;stroke-width:1.89652;stroke-linecap:round;stroke-linejoin:round;paint-order:stroke fill markers"
         d="m 277.37891,11.517578 c -5.23465,0 -9.44727,2.529135 -9.44727,5.669922 v 36.96875 c 0,3.140787 4.21262,5.669922 9.44727,5.669922 h 18.6582 V 11.517578 Z"
         transform="matrix(0.26458333,0,0,0.26458333,-53.665975,113.01387)" /><rect
         style="fill:#ffff00;stroke:none;stroke-width:0.649212;stroke-linecap:round;stroke-linejoin:round;paint-order:stroke fill markers"
         id="rect3188-2-31"
         width="16.552593"
         height="36.449963"
         x="114.17564"
         y="-62.219357"
         rx="1.5"
         ry="1.5"
         transform="rotate(90)" /></g><g
       id="g74125"
       transform="matrix(1.2255794,0,0,1.2255794,40.122058,1.2576142)"><path
         id="rect3188-2-3-67-4"
         style="fill:#ab9905;fill-opacity:1;stroke:none;stroke-width:0.906372;stroke-linecap:round;stroke-linejoin:round;paint-order:stroke fill markers"
         d="m 453.00977,253.41016 v 11.0332 h 33.78125 c 5.23464,0 9.44921,-2.46132 9.44921,-5.51758 0,-3.05626 -4.21457,-5.51562 -9.44921,-5.51562 z"
         transform="matrix(0.26458333,0,0,0.26458333,-53.665975,113.01387)" /><path
         id="rect3188-2-3-60-6"
         style="fill:#ab9905;fill-opacity:1;stroke:none;stroke-width:1.89652;stroke-linecap:round;stroke-linejoin:round;paint-order:stroke fill markers"
         d="m 442.18359,235.21289 v 47.42773 c 3.40554,-0.85517 5.78711,-2.86971 5.78711,-5.23046 v -36.96875 c 0,-2.36076 -2.38157,-4.37334 -5.78711,-5.22852 z"
         transform="matrix(0.26458333,0,0,0.26458333,-53.665975,113.01387)" /></g><g
       id="g74121"
       transform="matrix(1.2255794,0,0,1.2255794,40.122058,1.2576142)"><path
         id="rect3188-2-3-6-6"
         style="fill:#ff0000;stroke:none;stroke-width:1.23089;stroke-linecap:round;stroke-linejoin:round;paint-order:stroke fill markers"
         d="m 211.21484,243.85352 c -5.23464,0 -9.44922,3.37087 -9.44922,7.55859 v 15.02734 c 10e-6,4.18772 4.21458,7.56055 9.44922,7.56055 h 51.7168 v -30.14648 z m -2.06054,6.21875 h 7.26953 v 17.70898 h -7.26953 z m 13.32031,0 h 7.26953 v 17.70898 h -7.26953 z m 13.31836,0 h 7.26953 v 17.70898 h -7.26953 z m 13.32031,0 h 7.26953 v 17.70898 h -7.26953 z"
         transform="matrix(0.26458333,0,0,0.26458333,-53.665975,113.01387)" /><path
         id="rect3188-2-3-4"
         style="fill:#ff0000;stroke:none;stroke-width:1.89652;stroke-linecap:round;stroke-linejoin:round;paint-order:stroke fill markers"
         d="m 277.37891,234.77344 c -5.23465,0 -9.44727,2.52718 -9.44727,5.66797 v 36.96875 c 0,3.14078 4.21262,5.66992 9.44727,5.66992 h 18.6582 v -48.30664 z"
         transform="matrix(0.26458333,0,0,0.26458333,-53.665975,113.01387)" /><rect
         style="fill:#ff0000;stroke:none;stroke-width:0.649212;stroke-linecap:round;stroke-linejoin:round;paint-order:stroke fill markers"
         id="rect3188-2-2"
         width="16.552593"
         height="36.449963"
         x="173.24518"
         y="-62.219349"
         rx="1.5"
         ry="1.5"
         transform="rotate(90)" /></g></g><g
     id="g967"
     transform="matrix(1.2372869,0,0,1,-64.73502,0)"><g
       aria-label="PLUG"
       transform="scale(1.0124935,0.98766067)"
       id="text35828"
       style="font-size:33.2916px;line-height:1.25;fill:#4d4d4d;stroke-width:0.427862"><path
         d="m 192.18375,154.36141 -1.60931,8.0303 h -5.25058 l 4.66537,-23.31062 h 8.22537 q 8.81057,0 7.31505,7.42883 -0.699,3.51123 -3.65753,5.68949 -2.95853,2.162 -7.185,2.162 z m 2.24328,-11.24892 -1.44676,7.26628 h 2.06447 q 4.19397,0 4.92547,-3.67378 0.71525,-3.5925 -3.47871,-3.5925 z"
         style="font-style:italic;font-weight:bold;font-family:Gadugi;-inkscape-font-specification:'Gadugi Bold Italic'"
         id="path859" /><path
         d="m 219.65582,162.39171 h -13.88234 l 4.66538,-23.31062 h 5.25058 l -3.82008,19.05163 h 8.63175 z"
         style="font-style:italic;font-weight:bold;font-family:Gadugi;-inkscape-font-specification:'Gadugi Bold Italic'"
         id="path861" /><path
         d="m 243.81174,152.29694 q -2.09698,10.50116 -11.88289,10.50116 -9.49331,0 -7.4451,-10.25732 l 2.69844,-13.45969 h 5.26684 l -2.7147,13.52471 q -1.12164,5.65697 3.2999,5.65697 4.34026,0 5.42939,-5.4619 l 2.74721,-13.71978 h 5.25058 z"
         style="font-style:italic;font-weight:bold;font-family:Gadugi;-inkscape-font-specification:'Gadugi Bold Italic'"
         id="path863" /><path
         d="m 266.30958,160.83116 q -3.80383,1.96694 -8.8756,1.96694 -5.62446,0 -8.24162,-3.10483 -2.61716,-3.12109 -1.52803,-8.58299 1.08913,-5.49442 5.33186,-8.95687 4.24273,-3.46246 10.12728,-3.46246 3.70629,0 6.32345,1.02411 l -0.9916,4.92546 q -2.37332,-1.56054 -6.27468,-1.56054 -3.26739,0 -5.75451,2.12949 -2.48711,2.11324 -3.18611,5.65697 -0.71525,3.5925 0.73151,5.55944 1.44675,1.96694 4.58409,1.96694 1.88566,0 3.10484,-0.53644 l 0.91031,-4.55159 h -4.66537 l 0.82904,-4.19396 h 9.91595 z"
         style="font-style:italic;font-weight:bold;font-family:Gadugi;-inkscape-font-specification:'Gadugi Bold Italic'"
         id="path865" /></g><g
       aria-label="&amp;"
       transform="scale(1.0124935,0.98766067)"
       id="text35828-2"
       style="font-size:22.4825px;line-height:1.25;fill:#4d4d4d;stroke-width:0.427862"><path
         d="m 232.80091,188.441 q -0.58182,0 -1.07582,-0.15369 -0.48302,-0.15369 -0.90018,-0.41716 -0.40618,-0.26347 -0.75747,-0.61475 -0.34031,-0.36227 -0.63671,-0.76845 -0.47204,0.32933 -1.11973,0.68062 -0.63671,0.35129 -1.41614,0.63671 -0.76844,0.27445 -1.6796,0.45009 -0.90017,0.18663 -1.88818,0.18663 -1.2844,0 -2.31631,-0.30738 -1.02093,-0.30738 -1.69058,-0.91116 -0.66964,-0.61475 -0.93311,-1.51493 -0.26346,-0.90018 -0.0329,-2.08578 0.18662,-0.93311 0.66964,-1.65765 0.48303,-0.73551 1.13072,-1.2844 0.64768,-0.54889 1.40515,-0.94409 0.75747,-0.3952 1.51494,-0.65866 -0.28543,-0.26347 -0.57085,-0.60378 -0.27444,-0.35129 -0.47204,-0.75747 -0.18663,-0.41715 -0.26347,-0.90018 -0.0659,-0.48302 0.0439,-1.02093 0.17565,-0.86725 0.65867,-1.53689 0.48302,-0.66964 1.20755,-1.13071 0.72454,-0.46107 1.64667,-0.70258 0.93311,-0.24151 1.98698,-0.24151 1.00996,0 1.78938,0.25249 0.7904,0.25249 1.30636,0.70258 0.51595,0.45009 0.71355,1.0868 0.20858,0.62573 0.0549,1.3832 -0.24151,1.21853 -1.15267,2.11871 -0.91115,0.8892 -2.34924,1.44907 0.48302,0.24151 0.90018,0.54889 0.42813,0.30737 0.80137,0.70257 0.38423,0.3952 0.72454,0.90018 0.34031,0.494 0.63671,1.14169 1.13071,-1.13071 1.76742,-2.40413 0.64769,-1.2844 0.93311,-2.6676 0.0768,-0.41716 0.0988,-0.80138 0.0329,-0.38422 -0.011,-0.71356 h 2.95302 q 0.0549,0.35129 0.0439,0.68062 -0.011,0.32934 -0.0988,0.77943 -0.21956,1.06484 -0.64769,2.0748 -0.42813,1.00995 -1.02093,1.93209 -0.58183,0.92213 -1.32831,1.74547 -0.73552,0.82333 -1.56983,1.53689 0.42814,0.55986 0.93311,0.86724 0.51596,0.2964 1.02094,0.2964 0.52693,0 1.09778,-0.10978 0.57084,-0.12075 1.02093,-0.32933 l -0.52693,2.61271 q -0.64769,0.24151 -1.26245,0.35129 -0.61475,0.12076 -1.33929,0.12076 z m -8.77125,-2.62369 q 0.64769,0 1.24049,-0.12076 0.60378,-0.13173 1.14169,-0.34031 0.54889,-0.20858 1.03191,-0.48302 0.494,-0.27445 0.92214,-0.57085 -0.38422,-0.87822 -0.81236,-1.482 -0.42813,-0.61475 -0.87822,-1.04289 -0.45009,-0.43911 -0.92213,-0.73551 -0.47205,-0.2964 -0.96605,-0.53791 -0.494,0.21955 -0.96604,0.494 -0.46107,0.26347 -0.85627,0.62573 -0.38422,0.35129 -0.66965,0.81236 -0.27444,0.45009 -0.3952,1.04289 -0.10977,0.52693 -0.011,0.95507 0.10977,0.42813 0.38422,0.73551 0.28542,0.30737 0.72453,0.48302 0.45009,0.16467 1.03191,0.16467 z m 4.02885,-9.96783 q 0.0659,-0.31836 -0.011,-0.57085 -0.0659,-0.25249 -0.24151,-0.41715 -0.17564,-0.17565 -0.42813,-0.26347 -0.24151,-0.0988 -0.53791,-0.0988 -0.36227,0 -0.6916,0.10978 -0.31836,0.10978 -0.58183,0.2964 -0.25249,0.18662 -0.42813,0.45009 -0.17565,0.25249 -0.23053,0.54889 -0.12076,0.61475 0.15368,1.13071 0.28543,0.51596 0.79041,0.83431 0.38422,-0.13173 0.74648,-0.30738 0.36227,-0.17564 0.65867,-0.41715 0.2964,-0.24151 0.50498,-0.55987 0.20858,-0.31836 0.2964,-0.73551 z"
         style="font-style:italic;font-weight:bold;font-family:Gadugi;-inkscape-font-specification:'Gadugi Bold Italic'"
         id="path905" /></g><g
       aria-label="PLAY"
       transform="scale(1.0124935,0.98766067)"
       id="text35828-8"
       style="font-size:33.2916px;line-height:1.25;fill:#4d4d4d;stroke-width:0.636836"><path
         d="m 192.68767,213.74023 -1.60931,8.03029 h -5.25058 l 4.66537,-23.31062 h 8.22537 q 8.81057,0 7.31505,7.42884 -0.69899,3.51122 -3.65753,5.68948 -2.95853,2.16201 -7.185,2.16201 z m 2.24328,-11.24892 -1.44675,7.26628 h 2.06447 q 4.19396,0 4.92546,-3.67378 0.71525,-3.5925 -3.47871,-3.5925 z"
         style="font-style:italic;font-weight:bold;font-family:Gadugi;-inkscape-font-specification:'Gadugi Bold Italic'"
         id="path927" /><path
         d="M 220.15974,221.77052 H 206.2774 l 4.66538,-23.31062 h 5.25058 l -3.82008,19.05164 h 8.63176 z"
         style="font-style:italic;font-weight:bold;font-family:Gadugi;-inkscape-font-specification:'Gadugi Bold Italic'"
         id="path929" /><path
         d="m 243.79548,221.77052 h -5.722 l -0.61771,-5.18555 h -8.29039 l -2.68218,5.18555 h -5.68949 l 13.15084,-23.31062 h 6.22591 z m -6.7461,-9.21696 -0.92658,-7.83523 q -0.0975,-0.8778 0.0325,-2.09698 h -0.13005 q -0.2926,1.02411 -0.81278,2.03196 l -4.12894,7.90025 z"
         style="font-style:italic;font-weight:bold;font-family:Gadugi;-inkscape-font-specification:'Gadugi Bold Italic'"
         id="path931" /><path
         d="m 268.94299,198.4599 -10.5987,15.02023 -1.65807,8.29039 h -5.25058 l 1.64182,-8.19285 -4.37277,-15.11777 h 5.99834 l 2.0157,8.69678 q 0.0488,0.24384 0.1463,1.90191 h 0.065 q 0.45516,-1.1704 0.87781,-1.83689 l 5.57569,-8.7618 z"
         style="font-style:italic;font-weight:bold;font-family:Gadugi;-inkscape-font-specification:'Gadugi Bold Italic'"
         id="path933" /></g></g><text
     xml:space="preserve"
     transform="matrix(0.32426787,0,0,0.32426787,-25.838862,139.76508)"
     id="text84374"
     style="font-style:normal;font-weight:normal;font-size:40px;line-height:1.25;font-family:sans-serif;white-space:pre;shape-inside:url(#rect84376);fill:#000000;fill-opacity:1;stroke:none" /><text
     xml:space="preserve"
     transform="matrix(0.32426787,0,0,0.32426787,-25.838862,139.76508)"
     id="text86192"
     style="font-style:normal;font-weight:normal;font-size:40px;line-height:1.25;font-family:sans-serif;white-space:pre;shape-inside:url(#rect86194);fill:#000000;fill-opacity:1;stroke:none" /></g></svg>
