<?xml version="1.0" encoding="UTF-8" standalone="no"?>
<!-- Generator: Adobe Illustrator 13.0.0, SVG Export Plug-In . SVG Version: 6.00 Build 14948)  -->

<svg
   version="1.2"
   id="Layer_3"
   x="0px"
   y="0px"
   width="598.189px"
   height="350.26px"
   viewBox="0 0 598.189 350.26"
   xml:space="preserve"
   sodipodi:docname="controller.svg"
   inkscape:version="1.1.1 (3bf5ae0d25, 2021-09-20)"
   xmlns:inkscape="http://www.inkscape.org/namespaces/inkscape"
   xmlns:sodipodi="http://sodipodi.sourceforge.net/DTD/sodipodi-0.dtd"
   xmlns="http://www.w3.org/2000/svg"
   xmlns:svg="http://www.w3.org/2000/svg"
   xmlns:rdf="http://www.w3.org/1999/02/22-rdf-syntax-ns#"
   xmlns:cc="http://creativecommons.org/ns#"
   xmlns:dc="http://purl.org/dc/elements/1.1/"
   xmlns:ns="&amp;ns_sfw;"><defs
   id="defs17" /><sodipodi:namedview
   id="namedview15"
   pagecolor="#ffffff"
   bordercolor="#666666"
   borderopacity="1.0"
   inkscape:pageshadow="2"
   inkscape:pageopacity="0.0"
   inkscape:pagecheckerboard="0"
   showgrid="false"
   inkscape:zoom="2.5012795"
   inkscape:cx="319.03672"
   inkscape:cy="149.72337"
   inkscape:window-width="1920"
   inkscape:window-height="1009"
   inkscape:window-x="-8"
   inkscape:window-y="-8"
   inkscape:window-maximized="1"
   inkscape:current-layer="Layer_3"
   showguides="false" />
<metadata
   id="metadata55">
	<rdf:RDF>
		<cc:Work
   rdf:about="">
			<dc:format>image/svg+xml</dc:format>
			<dc:type
   rdf:resource="http://purl.org/dc/dcmitype/StillImage" />
			<dc:title />
		</cc:Work>
	</rdf:RDF>
	<ns:sfw>
		<ns:slices />
		<ns:sliceSourceBounds
   x="712.69"
   y="-7652"
   width="493.792"
   height="16383"
   bottomLeftOrigin="true" />
	</ns:sfw>
</metadata>











<g
   id="g1078"
   transform="matrix(1.8023058,0,0,1.8023058,5.3727025,260.05273)"
   style="mix-blend-mode:overlay;fill:none;stroke:#ececec;stroke-width:1.38711;stroke-miterlimit:2.5;stroke-dasharray:none"><path
     style="fill:none;stroke:#ececec;stroke-width:1.38711;stroke-miterlimit:2.5;stroke-dasharray:none"
     d="m 78.970018,42.88107 v -6 h -6 -6 v -84 -84 h 6 6 v -6 -6 h 72.000002 72 v 6 6 h 6 6 v 18 18 h 12 12 v 30 30 h -6 -6 v 6 6 h -6 -6 v 24 24 h -6 -6 v 6 6 h -6 -6 v 6 6 h -30 -30 v -6 -6 h -6 -6 v 6 6 h -30 -30.000002 z"
     id="path1086" /><path
     style="fill:none;stroke:#ececec;stroke-width:1.38711;stroke-miterlimit:2.5;stroke-dasharray:none"
     d="m 90.970018,30.88107 v -6 h -6 -6 v -72 -72 h 6 6 v -6 -6 h 60.000002 60 v 6 6 h 6 6 v 36 36 h 6 6 v -18 -18 h 6 6 v 18 18 h -6 -6 v 6 6 h -6 -6 v 24 24 h -6 -6 v 6 6 h -6 -6 v 6 6 h -18 -18 v -6 -6 h -18 -18 v 6 6 h -18 -18.000002 z m 72.000002,-36 v -6 h 6 6 v -6 -6 h -6 -6 v 6 6 h -18 -18 v -6 -6 h -6 -6 v 6 6 h 6 6 v 6 6 h 18 18 z m 36,-60 v -30 h -54 -54.000002 v 30 30 h 54.000002 54 z m -84,0 v -18 h 6 6 v 18 18 h -6 -6 z m 48,0 v -18 h 6 6 v 18 18 h -6 -6 z"
     id="path1084" /><path
     style="fill:none;stroke:#ececec;stroke-width:1.38711;stroke-miterlimit:2.5;stroke-dasharray:none"
     d="m 90.970018,30.88107 v -6 h -6 -6 v -6 -6 h 66.000002 66 v -66 -66 h -60 -60.000002 v -6 -6 h 60.000002 60 v 6 6 h 6 6 v 36 36 h 6 6 v -18 -18 h 6 6 v 18 18 h -6 -6 v 6 6 h -6 -6 v 24 24 h -6 -6 v 6 6 h -6 -6 v 6 6 h -18 -18 v -6 -6 h -18 -18 v 6 6 h -18 -18.000002 z m 24.000002,-96 v -18 h 6 6 v 18 18 h -6 -6 z m 48,0 v -18 h 6 6 v 18 18 h -6 -6 z m -72.000002,-36 v -6 h 54.000002 54 v 6 6 h -54 -54.000002 z"
     id="path1082" /><path
     style="fill:none;stroke:#ececec;stroke-width:1.38711;stroke-miterlimit:2.5;stroke-dasharray:none"
     d="m 90.970018,30.88107 v -6 h 18.000002 18 v 6 6 h -18 -18.000002 z m 72.000002,0 v -6 h 18 18 v 6 6 h -18 -18 z m 48,-84 v -66 h 6 6 v 36 36 h 6 6 v -18 -18 h 6 6 v 18 18 h -6 -6 v 6 6 h -6 -6 v 24 24 h -6 -6 z m -96,-12 v -18 h 6 6 v 18 18 h -6 -6 z m 48,0 v -18 h 6 6 v 18 18 h -6 -6 z"
     id="path1080" /></g></svg>
