<?xml version="1.0" encoding="UTF-8" standalone="no"?>
<!-- Generator: Adobe Illustrator 13.0.0, SVG Export Plug-In . SVG Version: 6.00 Build 14948)  -->

<svg
   version="1.2"
   id="Ebene_1"
   x="0px"
   y="0px"
   width="566.929px"
   height="96.834px"
   viewBox="0 0 566.929 96.834"
   xml:space="preserve"
   sodipodi:docname="system2.svg"
   inkscape:version="1.1.1 (3bf5ae0d25, 2021-09-20)"
   xmlns:inkscape="http://www.inkscape.org/namespaces/inkscape"
   xmlns:sodipodi="http://sodipodi.sourceforge.net/DTD/sodipodi-0.dtd"
   xmlns="http://www.w3.org/2000/svg"
   xmlns:svg="http://www.w3.org/2000/svg"><defs
   id="defs25" /><sodipodi:namedview
   id="namedview23"
   pagecolor="#ffffff"
   bordercolor="#666666"
   borderopacity="1.0"
   inkscape:pageshadow="2"
   inkscape:pageopacity="0.0"
   inkscape:pagecheckerboard="0"
   showgrid="false"
   inkscape:zoom="1.8661948"
   inkscape:cx="305.43435"
   inkscape:cy="48.494401"
   inkscape:window-width="1920"
   inkscape:window-height="1009"
   inkscape:window-x="-8"
   inkscape:window-y="-8"
   inkscape:window-maximized="1"
   inkscape:current-layer="Ebene_1" />

<g
   id="g1374"
   transform="matrix(2.3919574,0,0,2.6560101,-562.62198,206.31709)"><path
     style="fill:#f3f3f3"
     d="m 255.84007,-53.300072 v -12 h -3 -3 v -6 -6 h 12 12 v 6 6 h -3 -3 v 12 12 h -6 -6 z m 30,6 v -6 h 3 3 v -6 -6 h -3 -3 v -6 -6 h 12 12 v 6 6 h -3 -3 v 6 6 h 3 3 v 6 6 h -12 -12 z m 36,3 v -3 h -3 -3 v -12 -12 h 3 3 v -3 -3 h 9 9 v 3 3 h 3 3 v 12 12 h -3 -3 v 3 3 h -9 -9 z m 18,-15 v -6 h -6 -6 v 6 6 h 6 6 z m 54,15 v -3 h -3 -3 v -12 -12 h 3 3 v -3 -3 h 9 9 v 3 3 h 3 3 v 12 12 h -3 -3 v 3 3 h -9 -9 z m 36,0 v -3 h -3 -3 v -12 -12 h 3 3 v -3 -3 h 9 9 v 3 3 h 3 3 v 12 12 h -3 -3 v 3 3 h -9 -9 z m 18,-12 v -3 h -3 -3 v 3 3 h 3 3 z m -90,-3 v -6 h 9 9 v 6 6 h -9 -9 z"
     id="path1378" /><path
     style="fill:#191b2b"
     d="m 255.84007,-44.300072 v -3 h 6 6 v 3 3 h -6 -6 z m 30,0 v -3 h 12 12 v 3 3 h -12 -12 z m 36,0 v -3 h -3 -3 v -3 -3 h 3 3 v 3 3 h 9 9 v -3 -3 h 3 3 v 3 3 h -3 -3 v 3 3 h -9 -9 z m 72,0 v -3 h -3 -3 v -3 -3 h 3 3 v 3 3 h 9 9 v -3 -3 h -6 -6 v -3 -3 h 6 6 v -3 -3 h -6 -6 v -3 -3 h 6 6 v 3 3 h 3 3 v 3 3 h -3 -3 v 3 3 h 3 3 v 3 3 h -3 -3 v 3 3 h -9 -9 z m 36,0 v -3 h -3 -3 v -3 -3 h 3 3 v 3 3 h 9 9 v -3 -3 h 3 3 v 3 3 h -3 -3 v 3 3 h -9 -9 z m -72,-12 v -3 h 9 9 v 3 3 h -9 -9 z m 78,0 v -3 h 3 3 v -3 -3 h -3 -3 v -3 -3 h 3 3 v 3 3 h 3 3 v 3 3 h -3 -3 v 3 3 h -3 -3 z m -96,-6 v -3 h -6 -6 v -3 -3 h 6 6 v 3 3 h 3 3 v 3 3 h -3 -3 z m 48,0 v -3 h 3 3 v 3 3 h -3 -3 z m -138,-6 v -3 h 3 3 v 3 3 h -3 -3 z m 18,0 v -3 h 3 3 v 3 3 h -3 -3 z m 18,0 v -3 h 3 3 v 3 3 h -3 -3 z m 18,0 v -3 h 3 3 v 3 3 h -3 -3 z"
     id="path1376" /></g></svg>
