<?xml version="1.0" encoding="UTF-8" standalone="no"?>
<!-- Generator: Adobe Illustrator 13.0.0, SVG Export Plug-In . SVG Version: 6.00 Build 14948)  -->

<svg
   version="1.2"
   id="Layer_1"
   x="0px"
   y="0px"
   width="567.30414"
   height="124.04807"
   viewBox="0 0 567.30415 124.04807"
   xml:space="preserve"
   sodipodi:docname="system.svg"
   inkscape:version="1.1.1 (3bf5ae0d25, 2021-09-20)"
   xmlns:inkscape="http://www.inkscape.org/namespaces/inkscape"
   xmlns:sodipodi="http://sodipodi.sourceforge.net/DTD/sodipodi-0.dtd"
   xmlns:xlink="http://www.w3.org/1999/xlink"
   xmlns="http://www.w3.org/2000/svg"
   xmlns:svg="http://www.w3.org/2000/svg"><defs
   id="defs29"><clipPath
     clipPathUnits="userSpaceOnUse"
     id="clipPath3065"><path
       inkscape:connector-curvature="0"
       d="m 35.0596,793.33008 h 8.48038 l 6.98829,-28.146 h -8.48039 l -6.98828,28.146"
       id="path3067" /></clipPath><clipPath
     clipPathUnits="userSpaceOnUse"
     id="clipPath3073"><path
       inkscape:connector-curvature="0"
       d="M 0,793.26001 H 612 V -0.06 H 0 Z"
       id="path3075" /></clipPath><linearGradient
     inkscape:collect="always"
     xlink:href="#linearGradient3089"
     id="linearGradient4159"
     gradientUnits="userSpaceOnUse"
     gradientTransform="matrix(0,-28.146,-19.4688,0,52.52829,793.33008)"
     x1="0.14999001"
     y1="0"
     x2="0.39998999"
     y2="0" /><linearGradient
     x1="0.14999001"
     y1="0"
     x2="0.39998999"
     y2="0"
     gradientUnits="userSpaceOnUse"
     gradientTransform="matrix(0,-28.146,-19.4688,0,52.52829,793.33008)"
     id="linearGradient3089"><stop
       style="stop-opacity:1;stop-color:#e2e9df"
       offset="0"
       id="stop3091" /><stop
       style="stop-opacity:1;stop-color:#9bc59d"
       offset="1"
       id="stop3093" /></linearGradient><linearGradient
     inkscape:collect="always"
     xlink:href="#linearGradient3109"
     id="linearGradient4161"
     gradientUnits="userSpaceOnUse"
     gradientTransform="matrix(0,-28.146,-19.4688,0,52.52829,793.33008)"
     x1="0.39998999"
     y1="0"
     x2="0.85000998"
     y2="0" /><linearGradient
     x1="0.39998999"
     y1="0"
     x2="0.85000998"
     y2="0"
     gradientUnits="userSpaceOnUse"
     gradientTransform="matrix(0,-28.146,-19.4688,0,52.52829,793.33008)"
     id="linearGradient3109"><stop
       style="stop-opacity:1;stop-color:#9bc59d"
       offset="0"
       id="stop3111" /><stop
       style="stop-opacity:1;stop-color:#38984d"
       offset="1"
       id="stop3113" /></linearGradient><clipPath
     clipPathUnits="userSpaceOnUse"
     id="clipPath3121"><path
       inkscape:connector-curvature="0"
       d="m 48.31931,790.01367 h 8.48249 l 5.53897,-21.50488 H 53.8604 l -5.54109,21.50488"
       id="path3123" /></clipPath><linearGradient
     inkscape:collect="always"
     xlink:href="#linearGradient3137"
     id="linearGradient4163"
     gradientUnits="userSpaceOnUse"
     gradientTransform="matrix(0,-28.1628,-18.0215,0,64.34079,793.35107)"
     x1="0.14999001"
     y1="0"
     x2="0.39998999"
     y2="0" /><linearGradient
     x1="0.14999001"
     y1="0"
     x2="0.39998999"
     y2="0"
     gradientUnits="userSpaceOnUse"
     gradientTransform="matrix(0,-28.1628,-18.0215,0,64.34079,793.35107)"
     id="linearGradient3137"><stop
       style="stop-opacity:1;stop-color:#e2e9df"
       offset="0"
       id="stop3139" /><stop
       style="stop-opacity:1;stop-color:#9bc59d"
       offset="1"
       id="stop3141" /></linearGradient><linearGradient
     inkscape:collect="always"
     xlink:href="#linearGradient3157"
     id="linearGradient4165"
     gradientUnits="userSpaceOnUse"
     gradientTransform="matrix(0,-28.1628,-18.0215,0,64.34079,793.35107)"
     x1="0.39998999"
     y1="0"
     x2="0.85000998"
     y2="0" /><linearGradient
     x1="0.39998999"
     y1="0"
     x2="0.85000998"
     y2="0"
     gradientUnits="userSpaceOnUse"
     gradientTransform="matrix(0,-28.1628,-18.0215,0,64.34079,793.35107)"
     id="linearGradient3157"><stop
       style="stop-opacity:1;stop-color:#9bc59d"
       offset="0"
       id="stop3159" /><stop
       style="stop-opacity:1;stop-color:#38984d"
       offset="1"
       id="stop3161" /></linearGradient><clipPath
     clipPathUnits="userSpaceOnUse"
     id="clipPath3169"><path
       inkscape:connector-curvature="0"
       d="m 35.0596,793.33008 -8.29303,-33.93506 h 8.49222 l 4.07809,16.71051 -4.27728,17.22455"
       id="path3171" /></clipPath><clipPath
     clipPathUnits="userSpaceOnUse"
     id="clipPath3177"><path
       inkscape:connector-curvature="0"
       d="M 0,793.26001 H 612 V -0.06 H 0 Z"
       id="path3179" /></clipPath><linearGradient
     inkscape:collect="always"
     xlink:href="#linearGradient3193"
     id="linearGradient4167"
     gradientUnits="userSpaceOnUse"
     gradientTransform="matrix(0,33.9351,16.5703,0,24.7666,759.45251)"
     spreadMethod="pad"
     x1="0.30000001"
     y1="0"
     x2="0.69999999"
     y2="0" /><linearGradient
     x1="0.30000001"
     y1="0"
     x2="0.69999999"
     y2="0"
     gradientUnits="userSpaceOnUse"
     gradientTransform="matrix(0,33.9351,16.5703,0,24.7666,759.45251)"
     spreadMethod="pad"
     id="linearGradient3193"><stop
       style="stop-opacity:1;stop-color:#cb7033"
       offset="0"
       id="stop3195" /><stop
       style="stop-opacity:1;stop-color:#8c502d"
       offset="1"
       id="stop3197" /></linearGradient><clipPath
     clipPathUnits="userSpaceOnUse"
     id="clipPath3205"><path
       inkscape:connector-curvature="0"
       d="m 58.61038,786.67969 -0.47859,-1.83008 4.20898,-16.34082 4.74032,18.1709 h -8.47071"
       id="path3207" /></clipPath><linearGradient
     inkscape:collect="always"
     xlink:href="#linearGradient3221"
     id="linearGradient4169"
     gradientUnits="userSpaceOnUse"
     gradientTransform="matrix(0,18.1709,12.9492,0,56.13177,768.50879)"
     spreadMethod="pad"
     x1="0.30000001"
     y1="0"
     x2="0.69999999"
     y2="0" /><linearGradient
     x1="0.30000001"
     y1="0"
     x2="0.69999999"
     y2="0"
     gradientUnits="userSpaceOnUse"
     gradientTransform="matrix(0,18.1709,12.9492,0,56.13177,768.50879)"
     spreadMethod="pad"
     id="linearGradient3221"><stop
       style="stop-opacity:1;stop-color:#cb7033"
       offset="0"
       id="stop3223" /><stop
       style="stop-opacity:1;stop-color:#8c502d"
       offset="1"
       id="stop3225" /></linearGradient><clipPath
     clipPathUnits="userSpaceOnUse"
     id="clipPath3233"><path
       inkscape:connector-curvature="0"
       d="m 48.31931,790.01367 -1.99415,-7.90137 4.20311,-16.92822 2.07422,8.20801 -4.28318,16.62158"
       id="path3235" /></clipPath><linearGradient
     inkscape:collect="always"
     xlink:href="#linearGradient3249"
     id="linearGradient4171"
     gradientUnits="userSpaceOnUse"
     gradientTransform="matrix(0,24.82961,10.2773,0,44.3252,765.18408)"
     spreadMethod="pad"
     x1="0.30000001"
     y1="0"
     x2="0.69999999"
     y2="0" /><linearGradient
     x1="0.30000001"
     y1="0"
     x2="0.69999999"
     y2="0"
     gradientUnits="userSpaceOnUse"
     gradientTransform="matrix(0,24.82961,10.2773,0,44.3252,765.18408)"
     spreadMethod="pad"
     id="linearGradient3249"><stop
       style="stop-opacity:1;stop-color:#cb7033"
       offset="0"
       id="stop3251" /><stop
       style="stop-opacity:1;stop-color:#8c502d"
       offset="1"
       id="stop3253" /></linearGradient></defs><sodipodi:namedview
   id="namedview27"
   pagecolor="#ffffff"
   bordercolor="#666666"
   borderopacity="1.0"
   inkscape:pageshadow="2"
   inkscape:pageopacity="0.0"
   inkscape:pagecheckerboard="0"
   showgrid="false"
   inkscape:zoom="0.93309581"
   inkscape:cx="223.98557"
   inkscape:cy="322.04624"
   inkscape:window-width="1920"
   inkscape:window-height="1009"
   inkscape:window-x="-8"
   inkscape:window-y="-8"
   inkscape:window-maximized="1"
   inkscape:current-layer="Layer_1" />


<path
   d="M 209.44382,42.565079 V 1.0186341 h -6.90546 l 0.11373,26.7169059 -31.92381,-26.376949 0.1125,41.660176 h 6.00055 V 16.075635 Z m 4.41573,0.678678 5.32063,-9.056453 H 214.312 v -6.338033 h 8.03782 l 14.60331,-26.49068 23.32104,41.885166 h -8.26404 l -4.75445,-9.056453 h -20.71636 l -4.98068,9.056453 z M 229.369,27.73554 h 14.94327 l -7.47164,-13.69841 z m 89.99958,15.508217 h -6.79172 V 1.4710858 L 335.67044,28.300486 358.99025,0.90613923 V 43.243757 H 351.7436 L 351.63234,20.490131 335.55671,39.849132 319.36858,20.602625 Z m 52.7539,0 0.11249,-42.79130573 h 6.90545 L 379.02793,43.243757 Z M 385.48093,7.4716346 V 1.4710858 h -1.92354 V 0.33872022 h 5.32063 V 1.4710858 h -2.03974 v 6.0005488 z m 3.73582,-0.113731 V 0.33872022 h 1.92353 l 2.03851,4.41573138 1.92354,-4.41573138 h 1.47356 V 7.4716346 h -1.35983 V 2.8296773 l -1.92354,4.6419573 -2.71718,-4.6419573 v 4.6419573 z"
   id="path4"
   style="clip-rule:evenodd;fill-rule:evenodd;stroke-width:1.23621;fill:#333333" /><path
   d="m 260.04795,22.754862 c 0,-12.566044 10.18882,-22.75486249699999 22.7561,-22.75486249699999 12.5648,0 22.75362,10.18881849699999 22.75362,22.75486249699999 0,12.564808 -10.18882,22.753626 -22.75362,22.753626 -12.56728,0 -22.7561,-10.188818 -22.7561,-22.753626 z m 22.7561,15.961905 c 8.83022,0 15.95943,-7.132915 15.95943,-15.961905 0,-8.716496 -7.13044,-15.8494102 -15.95943,-15.8494102 -8.71773,0 -15.85065,7.1329142 -15.85065,15.8494102 0,8.82899 7.13168,15.961905 15.85065,15.961905 z"
   fill="#cc2229"
   id="path6"
   style="clip-rule:evenodd;fill-rule:evenodd;stroke-width:1.23621" /><path
   inkscape:connector-curvature="0"
   id="path3037"
   style="fill:#333333;fill-opacity:1;fill-rule:nonzero;stroke:none;stroke-width:1.13461"
   d="m 546.97763,92.486539 h 8.72989 v 1.287962 h -3.6416 v 9.460569 h -1.44667 v -9.460569 h -3.64162 z" /><path
   inkscape:connector-curvature="0"
   id="path3039"
   style="fill:#333333;fill-opacity:1;fill-rule:nonzero;stroke:none;stroke-width:1.13461"
   d="m 565.89747,103.23507 v -6.345479 c 0,-0.316363 0.0312,-1.678608 0.0312,-2.680229 h -0.0312 l -3.01819,9.025708 h -1.43803 l -3.02719,-9.012353 h -0.0312 c 0,0.988266 0.0312,2.350511 0.0312,2.666874 v 6.345479 h -1.40664 V 92.486539 h 2.08346 l 3.0672,9.087081 h 0.031 l 3.05396,-9.087081 h 2.06115 v 10.748531 h -1.40675 z" /><path
   inkscape:connector-curvature="0"
   id="path3041"
   style="fill:#333333;fill-opacity:1;fill-rule:nonzero;stroke:none;stroke-width:1.13461"
   d="m 290.01576,103.24078 c -2.85344,0 -4.5629,-2.31823 -3.81938,-5.171775 l 9.45078,-36.189095 h 13.78261 l -10.79538,41.36087 z" /><path
   inkscape:connector-curvature="0"
   id="path3043"
   style="fill:#333333;fill-opacity:1;fill-rule:nonzero;stroke:none;stroke-width:1.13461"
   d="m 283.58752,61.87991 h -49.97933 l -10.79988,41.36087 h 13.78689 l 9.44668,-36.192162 h 5.16825 c 0.95279,0 1.52712,0.773202 1.27778,1.724753 l -8.99701,34.467409 h 13.78715 l 9.44192,-36.192162 h 5.17302 c 0.95254,0 1.51801,0.773202 1.27322,1.724753 l -8.99696,34.467409 h 13.78255 l 9.45098,-36.192162 c 0.74785,-2.856319 -0.96161,-5.168708 -3.81526,-5.168708 z" /><path
   inkscape:connector-curvature="0"
   id="path3045"
   style="fill:#333333;fill-opacity:1;fill-rule:nonzero;stroke:none;stroke-width:1.13461"
   d="m 334.59978,84.282038 c 0.24484,-0.951551 -0.32045,-1.723084 -1.27319,-1.723084 h -17.23273 c -2.85339,0 -4.56285,-2.315725 -3.81932,-5.167881 l 4.04662,-15.511163 h 36.69543 l -1.34455,5.168708 h -22.90856 l -2.25235,8.619371 c -0.24941,0.950439 0.32042,1.723084 1.26864,1.723084 h 17.23699 c 2.85344,0 4.56746,2.314613 3.82394,5.167881 l -5.40437,20.681826 h -37.91078 l 1.34889,-5.171775 h 24.1239 z" /><path
   inkscape:connector-curvature="0"
   id="path3047"
   style="fill:#333333;fill-opacity:1;fill-rule:nonzero;stroke:none;stroke-width:1.13461"
   d="m 225.55507,67.048618 c 0.7435,-2.856319 -0.96596,-5.168708 -3.81961,-5.168708 h -32.74682 l -9.44649,36.189095 c -0.74782,2.853545 0.96597,5.171775 3.82395,5.171775 h 32.73795 z m -21.88471,31.020387 h -8.6184 c -0.9528,0 -1.52256,-0.771 -1.27324,-1.722823 l 7.64793,-29.297564 h 8.61403 c 0.95731,0 1.52712,0.773202 1.27779,1.724753 z" /><path
   inkscape:connector-curvature="0"
   id="path3049"
   style="fill:#333333;fill-opacity:1;fill-rule:nonzero;stroke:none;stroke-width:1.13461"
   d="m 355.50054,103.24078 h 49.97929 l 10.79101,-41.36087 h -13.78255 l -9.44648,36.189095 h -5.17275 c -0.9528,0 -1.52694,-0.771 -1.27327,-1.722823 l 8.99679,-34.466272 h -13.78234 l -9.45103,36.189095 h -5.16851 c -0.95273,0 -1.52255,-0.771 -1.27318,-1.722823 L 374.9145,61.87991 h -13.78688 l -9.44671,36.189095 c -0.74783,2.853545 0.96162,5.171775 3.81963,5.171775 z" /><path
   inkscape:connector-curvature="0"
   id="path3051"
   style="fill:#333333;fill-opacity:1;fill-rule:nonzero;stroke:none;stroke-width:1.13461"
   d="m 518.59787,98.069005 c -0.9525,0 -1.52227,-0.771 -1.27293,-1.722823 l 3.59694,-13.787228 h 20.6826 l 1.34428,-5.167881 h -20.67803 l 2.69776,-10.342455 h 22.9129 l 1.34888,-5.168708 h -36.6955 l -9.44643,36.189095 c -0.74808,2.853545 0.96594,5.171775 3.8193,5.171775 h 32.74253 l 1.35325,-5.171775 z" /><path
   inkscape:connector-curvature="0"
   id="path3053"
   style="fill:#333333;fill-opacity:1;fill-rule:nonzero;stroke:none;stroke-width:1.13461"
   d="m 139.89071,61.87991 1.06393,5.168708 h 14.97555 l -8.10646,31.020387 c -0.74352,2.853545 0.9705,5.171775 3.82395,5.171775 h 8.61862 l 9.4508,-36.192162 h 13.94282 l 1.34885,-5.168708 z" /><path
   inkscape:connector-curvature="0"
   id="path3055"
   style="fill:#333333;fill-opacity:1;fill-rule:nonzero;stroke:none;stroke-width:1.13461"
   d="m 135.95097,65.317739 c -0.1869,-2.006611 -1.72724,-3.437829 -3.9755,-3.437829 h -26.76349 l -10.79993,41.36087 h 13.79147 l 2.69775,-10.339916 h 14.10305 l 1.0637,10.339916 h 13.78713 z m -23.70104,22.41217 5.39999,-20.681291 h 3.47683 c 0.76132,0 1.27754,0.489402 1.3311,1.171642 l 2.01218,19.509649 z" /><path
   inkscape:connector-curvature="0"
   id="path3057"
   style="fill:#333333;fill-opacity:1;fill-rule:nonzero;stroke:none;stroke-width:1.13461"
   d="m 453.90561,65.317739 c -0.18689,-2.006611 -1.72723,-3.437829 -3.9753,-3.437829 h -26.75917 l -10.80446,41.36087 h 13.78711 l 2.69753,-10.339916 h 14.10763 l 1.06391,10.339916 h 13.7915 z m -23.70081,22.41217 5.39547,-20.681291 h 3.48568 c 0.75672,0 1.27323,0.489402 1.32654,1.171642 l 2.01672,19.509649 z" /><path
   inkscape:connector-curvature="0"
   id="path3059"
   style="fill:#333333;fill-opacity:1;fill-rule:nonzero;stroke:none;stroke-width:1.13461"
   d="m 482.40544,98.069005 h -3.47677 c -0.76108,0 -1.27755,-0.490798 -1.32654,-1.169963 L 473.98739,61.87991 h -13.78688 l 3.90395,37.925261 c 0.19145,2.001039 1.72748,3.435609 3.97985,3.435609 h 26.76371 l 10.79557,-41.36087 h -13.78711 z" /><g
   id="g3061"
   transform="matrix(2.2792775,0,0,-2.2792775,-61.008437,1854.92)"><g
     clip-path="url(#clipPath3065)"
     id="g3063"><g
       id="g3069"><g
         clip-path="url(#clipPath3073)"
         id="g3071"><g
           id="g3077"><g
             id="g3079"><g
               id="g3085"><g
                 id="g3087"><path
                   inkscape:connector-curvature="0"
                   id="path3095"
                   style="fill:url(#linearGradient4159);stroke:none"
                   d="m 35.03998,765.18005 v 28.07996 h 15.6 v -28.07996 z" /></g></g></g></g><g
           id="g3097"><g
             id="g3099"><g
               id="g3105"><g
                 id="g3107"><path
                   inkscape:connector-curvature="0"
                   id="path3115"
                   style="fill:url(#linearGradient4161);stroke:none"
                   d="m 35.03998,765.18005 v 28.07996 h 15.6 v -28.07996 z" /></g></g></g></g></g></g></g></g><g
   id="g3117"
   transform="matrix(2.2792775,0,0,-2.2792775,-61.008437,1854.92)"><g
     clip-path="url(#clipPath3121)"
     id="g3119"><g
       id="g3125"><g
         id="g3127"><g
           id="g3133"><g
             id="g3135"><path
               inkscape:connector-curvature="0"
               id="path3143"
               style="fill:url(#linearGradient4163);stroke:none"
               d="m 48.31931,768.50879 v 21.50488 h 14.02146 v -21.50488 z" /></g></g></g></g><g
       id="g3145"><g
         id="g3147"><g
           id="g3153"><g
             id="g3155"><path
               inkscape:connector-curvature="0"
               id="path3163"
               style="fill:url(#linearGradient4165);stroke:none"
               d="m 48.31931,768.50879 v 21.50488 h 14.02146 v -21.50488 z" /></g></g></g></g></g></g><g
   id="g3165"
   transform="matrix(2.2792775,0,0,-2.2792775,-61.008437,1854.92)"><g
     clip-path="url(#clipPath3169)"
     id="g3167"><g
       id="g3173"><g
         clip-path="url(#clipPath3177)"
         id="g3175"><g
           id="g3181"><g
             id="g3183"><g
               id="g3189"><g
                 id="g3191"><path
                   inkscape:connector-curvature="0"
                   id="path3199"
                   style="fill:url(#linearGradient4167);stroke:none"
                   d="m 26.75998,759.30005 v 33.95996 h 12.60001 v -33.95996 z" /></g></g></g></g></g></g></g></g><g
   id="g3201"
   transform="matrix(2.2792775,0,0,-2.2792775,-61.008437,1854.92)"><g
     clip-path="url(#clipPath3205)"
     id="g3203"><g
       id="g3209"><g
         id="g3211"><g
           id="g3217"><g
             id="g3219"><path
               inkscape:connector-curvature="0"
               id="path3227"
               style="fill:url(#linearGradient4169);stroke:none"
               d="m 58.13179,768.50879 v 18.1709 h 8.9493 v -18.1709 z" /></g></g></g></g></g></g><g
   id="g3229"
   transform="matrix(2.2792775,0,0,-2.2792775,-61.008437,1854.92)"><g
     clip-path="url(#clipPath3233)"
     id="g3231"><g
       id="g3237"><g
         id="g3239"><g
           id="g3245"><g
             id="g3247"><path
               inkscape:connector-curvature="0"
               id="path3255"
               style="fill:url(#linearGradient4171);stroke:none"
               d="m 46.32516,765.18408 v 24.82959 h 6.27733 v -24.82959 z" /></g></g></g></g></g></g></svg>
