<?xml version="1.0" encoding="UTF-8" standalone="no"?>
<!-- Generator: Adobe Illustrator 13.0.0, SVG Export Plug-In . SVG Version: 6.00 Build 14948)  -->

<svg
   version="1.1"
   id="Layer_1"
   x="0px"
   y="0px"
   width="270px"
   height="82.35px"
   viewBox="3 136.909 270 82.35"
   enable-background="new 3 136.909 270 82.35"
   xml:space="preserve"
   sodipodi:docname="system.svg"
   inkscape:version="1.1.1 (3bf5ae0d25, 2021-09-20)"
   xmlns:inkscape="http://www.inkscape.org/namespaces/inkscape"
   xmlns:sodipodi="http://sodipodi.sourceforge.net/DTD/sodipodi-0.dtd"
   xmlns="http://www.w3.org/2000/svg"
   xmlns:svg="http://www.w3.org/2000/svg"><defs
   id="defs32" /><sodipodi:namedview
   id="namedview30"
   pagecolor="#ffffff"
   bordercolor="#666666"
   borderopacity="1.0"
   inkscape:pageshadow="2"
   inkscape:pageopacity="0.0"
   inkscape:pagecheckerboard="0"
   showgrid="false"
   inkscape:zoom="3.9185185"
   inkscape:cx="135"
   inkscape:cy="41.214556"
   inkscape:window-width="1920"
   inkscape:window-height="1009"
   inkscape:window-x="-8"
   inkscape:window-y="-8"
   inkscape:window-maximized="1"
   inkscape:current-layer="Layer_1" />
<title
   id="title2">3DO Logo</title>
<rect
   x="3"
   y="136.909"
   width="270"
   height="82.35"
   id="rect4"
   style="stroke:#ffffff;stroke-width:2;stroke-miterlimit:4;stroke-dasharray:none" />





<radialGradient
   id="SVGID_1_"
   cx="49.8867"
   cy="-77.3159"
   r="10.654"
   gradientTransform="matrix(1,0,0,-1,-6,113)"
   gradientUnits="userSpaceOnUse">
	<stop
   offset="0.5225"
   style="stop-color:#FFE41B"
   id="stop16" />
	<stop
   offset="0.8933"
   style="stop-color:#716A13"
   id="stop18" />
	<stop
   offset="1"
   style="stop-color:#49482E"
   id="stop20" />
</radialGradient>


<g
   id="g1102"
   transform="translate(0,0.41750677)"><g
     id="g1090"><path
       fill="#ffffff"
       d="m 106.406,174.152 v 0.134 c 6.014,0.112 10.455,1.308 13.32,3.588 2.867,2.278 4.301,5.035 4.301,8.267 0,3.607 -1.629,6.586 -4.895,8.93 -3.259,2.351 -7.602,3.525 -13.015,3.525 -4.679,0 -8.293,-0.938 -10.853,-2.806 -2.56,-1.868 -3.84,-3.993 -3.84,-6.386 0,-1.586 0.573,-2.873 1.721,-3.846 1.146,-0.973 2.523,-1.455 4.125,-1.455 1.504,0 2.797,0.428 3.867,1.272 1.077,0.854 1.608,1.979 1.608,3.371 0,1.86 -1.245,3.419 -3.741,4.678 -0.488,0.245 -0.74,0.524 -0.74,0.833 0,0.573 0.698,1.076 2.104,1.512 1.399,0.433 2.825,0.643 4.293,0.643 4.805,0 7.21,-3.531 7.21,-10.594 0,-6.993 -2.889,-10.489 -8.657,-10.489 l -4.791,0.194 c -0.965,0 -1.454,-0.355 -1.454,-1.068 0,-0.818 0.51,-1.23 1.524,-1.23 l 3.489,0.133 c 3.56,0 5.943,-0.791 7.154,-2.379 1.215,-1.58 1.817,-3.832 1.817,-6.754 0,-3.008 -0.455,-5.225 -1.371,-6.638 -0.916,-1.42 -2.489,-2.125 -4.713,-2.125 -1.209,0 -2.349,0.202 -3.413,0.614 -1.063,0.406 -1.602,0.805 -1.602,1.204 0,0.368 0.351,0.755 1.05,1.153 1.831,1.168 2.755,2.434 2.755,3.797 0,1.343 -0.51,2.404 -1.539,3.203 -1.027,0.789 -2.182,1.188 -3.469,1.188 -1.482,0 -2.805,-0.455 -3.965,-1.355 -1.162,-0.91 -1.75,-2.028 -1.75,-3.379 0,-2.293 1.295,-4.279 3.881,-5.951 2.588,-1.678 5.902,-2.517 9.959,-2.517 4.482,0 8.259,0.95 11.334,2.847 3.084,1.895 4.623,4.32 4.623,7.293 0.008,5.845 -5.44,9.379 -16.327,10.593 z"
       id="path10" /><path
       fill="#ffffff"
       d="m 160.691,155.393 v 40.209 h 3.938 c 6.021,0 9.657,-1.58 10.909,-4.734 1.252,-3.16 1.875,-8.559 1.875,-16.202 0,-5.979 -0.386,-10.28 -1.154,-12.89 -0.762,-2.613 -1.93,-4.334 -3.489,-5.151 -1.561,-0.819 -3.545,-1.231 -5.944,-1.231 h -6.135 z m -12.16,40.209 v -40.209 h -6.307 v -2.176 h 25.271 c 7.309,0 13.098,2.07 17.357,6.217 4.258,4.141 6.391,9.371 6.391,15.686 0,3.271 -0.648,6.357 -1.95,9.23 -1.301,2.881 -3.301,5.504 -6,7.859 -2.7,2.357 -5.469,3.874 -8.308,4.553 -2.84,0.678 -6.322,1.016 -10.463,1.016 h -22.299 v -2.176 h 6.308 z"
       id="path12" /><path
       fill="#ffffff"
       d="m 239.909,175.518 c 0,-6.824 -0.142,-11.322 -0.421,-13.488 -0.285,-2.176 -1.014,-3.924 -2.188,-5.254 -1.175,-1.327 -3.111,-1.992 -5.805,-1.992 -2.271,0 -4.083,0.539 -5.434,1.609 -1.351,1.076 -2.188,2.797 -2.524,5.168 -0.328,2.369 -0.496,7 -0.496,13.888 0,6.817 0.14,11.335 0.426,13.538 0.28,2.203 1.036,3.959 2.261,5.267 1.224,1.308 3.146,1.958 5.769,1.958 2.175,0 3.95,-0.523 5.321,-1.574 1.371,-1.056 2.23,-2.762 2.574,-5.133 0.349,-2.373 0.517,-7.036 0.517,-13.987 z m -30.699,-0.189 c 0,-6.665 2.194,-12.119 6.603,-16.364 4.396,-4.236 9.678,-6.355 15.83,-6.355 5.715,0 10.826,1.992 15.336,5.979 4.513,3.986 6.764,9.657 6.764,17.008 0,6.889 -2.126,12.412 -6.393,16.566 -4.266,4.152 -9.476,6.23 -15.629,6.23 -6.65,0 -12.07,-2.211 -16.244,-6.615 -4.176,-4.408 -6.267,-9.889 -6.267,-16.449 z"
       id="path14" /></g><g
     id="g1085"><rect
       x="6.5"
       y="140.83299"
       fill="#ffffff"
       width="73.667"
       height="73.667"
       id="rect6" /><path
       fill="#888888"
       d="m 32.287,209.229 c 0,-1.006 4.646,-1.822 10.38,-1.822 5.734,0 10.38,0.816 10.38,1.822 0,1.006 -4.646,1.82 -10.38,1.82 -5.734,0 -10.38,-0.815 -10.38,-1.82 z"
       id="path8" /><path
       fill="url(#SVGID_1_)"
       d="m 33.844,192.059 c 0,-4.887 3.949,-8.846 8.823,-8.846 4.874,0 8.823,3.959 8.823,8.846 0,4.885 -3.95,8.846 -8.823,8.846 -4.875,-0.001 -8.823,-3.962 -8.823,-8.846 z"
       id="path23"
       style="fill:url(#SVGID_1_)" /><path
       fill="#0000a0"
       d="m 34.449,168.991 c -1.298,0.866 -1.644,5.896 -1.644,5.896 0,0 0.346,5.03 1.644,5.896 1.297,0.867 8.218,1.389 8.218,1.389 0,0 6.921,-0.521 8.217,-1.389 1.299,-0.866 1.645,-5.896 1.645,-5.896 0,0 -0.345,-5.03 -1.645,-5.896 -1.296,-0.868 -8.217,-1.389 -8.217,-1.389 0,0 -6.921,0.521 -8.218,1.389 z"
       id="path25" /><polygon
       fill="#ff0000"
       points="53.002,156.676 42.667,167.036 32.332,156.676 42.667,146.313 "
       id="polygon27" /></g></g>
</svg>
